{
	"patcher" : 	{
		"fileversion" : 1,
		"appversion" : 		{
			"major" : 7,
			"minor" : 0,
			"revision" : 1,
			"architecture" : "x86",
			"modernui" : 1
		}
,
		"rect" : [ 282.0, 159.0, 843.0, 569.0 ],
		"bglocked" : 0,
		"openinpresentation" : 0,
		"default_fontsize" : 12.0,
		"default_fontface" : 0,
		"default_fontname" : "Arial",
		"gridonopen" : 1,
		"gridsize" : [ 15.0, 15.0 ],
		"gridsnaponopen" : 1,
		"objectsnaponopen" : 1,
		"statusbarvisible" : 2,
		"toolbarvisible" : 1,
		"lefttoolbarpinned" : 0,
		"toptoolbarpinned" : 0,
		"righttoolbarpinned" : 0,
		"bottomtoolbarpinned" : 0,
		"toolbars_unpinned_last_save" : 0,
		"tallnewobj" : 0,
		"boxanimatetime" : 200,
		"enablehscroll" : 1,
		"enablevscroll" : 1,
		"devicewidth" : 0.0,
		"description" : "",
		"digest" : "",
		"tags" : "",
		"style" : "",
		"subpatcher_template" : "",
		"boxes" : [ 			{
				"box" : 				{
					"fontname" : "Arial",
					"fontsize" : 12.0,
					"id" : "obj-12",
					"linecount" : 2,
					"maxclass" : "comment",
					"numinlets" : 1,
					"numoutlets" : 0,
					"patching_rect" : [ 575.5, 31.0, 193.0, 33.0 ],
					"style" : "",
					"text" : "Optional: Send input names to Wekinator"
				}

			}
, 			{
				"box" : 				{
					"id" : "obj-7",
					"maxclass" : "button",
					"numinlets" : 1,
					"numoutlets" : 1,
					"outlettype" : [ "bang" ],
					"patching_rect" : [ 546.0, 31.0, 24.0, 24.0 ],
					"style" : ""
				}

			}
, 			{
				"box" : 				{
					"id" : "obj-2",
					"linecount" : 2,
					"maxclass" : "message",
					"numinlets" : 2,
					"numoutlets" : 1,
					"outlettype" : [ "" ],
					"patching_rect" : [ 546.0, 70.0, 269.0, 35.0 ],
					"style" : "",
					"text" : "/wekinator/control/setInputNames slider1 slider2 slider3"
				}

			}
, 			{
				"box" : 				{
					"fontname" : "Arial",
					"fontsize" : 12.0,
					"id" : "obj-1",
					"linecount" : 11,
					"maxclass" : "comment",
					"numinlets" : 1,
					"numoutlets" : 0,
					"patching_rect" : [ 136.0, 41.0, 236.0, 154.0 ],
					"style" : "",
					"text" : "INSTRUCTIONS\nUse this with Wekinator (www.wekinator.org)\n\nThis sends 3 features using default input message /wek/inputs and default port 6448.\n\nNOTE: This only sends features when a slider is moved. Add a metro object to send features at a constant rate."
				}

			}
, 			{
				"box" : 				{
					"fontname" : "Arial",
					"fontsize" : 12.0,
					"id" : "obj-10",
					"linecount" : 3,
					"maxclass" : "comment",
					"numinlets" : 1,
					"numoutlets" : 0,
					"patching_rect" : [ 172.0, 448.0, 362.0, 47.0 ],
					"style" : "",
					"text" : "127.0.0.1 is same as localhost (i.e., this machine); you can change the host IP address if Wekinator is running on a different host."
				}

			}
, 			{
				"box" : 				{
					"fontname" : "Arial",
					"fontsize" : 12.0,
					"id" : "obj-9",
					"linecount" : 2,
					"maxclass" : "comment",
					"numinlets" : 1,
					"numoutlets" : 0,
					"patching_rect" : [ 172.0, 413.0, 362.0, 33.0 ],
					"style" : "",
					"text" : "127.0.0.1 is the host and 6448 is the port here. These are good defaults. "
				}

			}
, 			{
				"box" : 				{
					"fontname" : "Arial",
					"fontsize" : 12.0,
					"id" : "obj-6",
					"linecount" : 5,
					"maxclass" : "comment",
					"numinlets" : 1,
					"numoutlets" : 0,
					"patching_rect" : [ 155.0, 220.0, 384.0, 74.0 ],
					"style" : "",
					"text" : "Advanced tips for Max/MSP users: \n1. Use pak object to send on any feature update; pack object to send only on 1st feature update\n2. MUST have one \"1.\" for every feature; use the number of \"1.\"s as your # of OSC features in Wekinator."
				}

			}
, 			{
				"box" : 				{
					"fontname" : "Arial",
					"fontsize" : 12.0,
					"id" : "obj-5",
					"maxclass" : "comment",
					"numinlets" : 1,
					"numoutlets" : 0,
					"patching_rect" : [ 35.5, 17.0, 193.0, 20.0 ],
					"style" : "",
					"text" : "Move the sliders with your mouse:"
				}

			}
, 			{
				"box" : 				{
					"fontname" : "Arial",
					"fontsize" : 12.0,
					"id" : "obj-4",
					"maxclass" : "comment",
					"numinlets" : 1,
					"numoutlets" : 0,
					"patching_rect" : [ 227.0, 339.0, 303.0, 20.0 ],
					"style" : "",
					"text" : "Optional: print OSC message to the Max console"
				}

			}
, 			{
				"box" : 				{
					"fontname" : "Arial",
					"fontsize" : 12.0,
					"id" : "obj-11",
					"maxclass" : "newobj",
					"numinlets" : 1,
					"numoutlets" : 0,
					"patching_rect" : [ 191.0, 338.0, 34.0, 22.0 ],
					"style" : "",
					"text" : "print"
				}

			}
, 			{
				"box" : 				{
					"id" : "obj-18",
					"maxclass" : "slider",
					"numinlets" : 1,
					"numoutlets" : 1,
					"outlettype" : [ "" ],
					"parameter_enable" : 0,
					"patching_rect" : [ 103.0, 41.0, 20.0, 140.0 ],
					"style" : ""
				}

			}
, 			{
				"box" : 				{
					"id" : "obj-17",
					"maxclass" : "slider",
					"numinlets" : 1,
					"numoutlets" : 1,
					"outlettype" : [ "" ],
					"parameter_enable" : 0,
					"patching_rect" : [ 70.0, 41.0, 20.0, 140.0 ],
					"style" : ""
				}

			}
, 			{
				"box" : 				{
					"id" : "obj-16",
					"maxclass" : "slider",
					"numinlets" : 1,
					"numoutlets" : 1,
					"outlettype" : [ "" ],
					"parameter_enable" : 0,
					"patching_rect" : [ 35.5, 41.0, 20.0, 140.0 ],
					"style" : ""
				}

			}
, 			{
				"box" : 				{
					"fontname" : "Arial",
					"fontsize" : 12.0,
					"id" : "obj-82",
					"maxclass" : "newobj",
					"numinlets" : 1,
					"numoutlets" : 2,
					"outlettype" : [ "bang", "" ],
					"patching_rect" : [ 29.0, 322.0, 33.0, 22.0 ],
					"style" : "",
					"text" : "t b s"
				}

			}
, 			{
				"box" : 				{
					"fontname" : "Arial",
					"fontsize" : 12.0,
					"id" : "obj-77",
					"maxclass" : "newobj",
					"numinlets" : 1,
					"numoutlets" : 3,
					"outlettype" : [ "", "", "OSCTimeTag" ],
					"patching_rect" : [ 29.0, 367.0, 143.0, 22.0 ],
					"style" : "",
					"text" : "OpenSoundControl 2000"
				}

			}
, 			{
				"box" : 				{
					"fontface" : 0,
					"fontname" : "Arial",
					"fontsize" : 12.0,
					"id" : "obj-74",
					"maxclass" : "newobj",
					"numinlets" : 1,
					"numoutlets" : 1,
					"outlettype" : [ "" ],
					"patching_rect" : [ 29.0, 288.0, 118.0, 22.0 ],
					"style" : "",
					"text" : "prepend /wek/inputs"
				}

			}
, 			{
				"box" : 				{
					"fontname" : "Arial",
					"fontsize" : 12.0,
					"id" : "obj-58",
					"maxclass" : "newobj",
					"numinlets" : 3,
					"numoutlets" : 1,
					"outlettype" : [ "" ],
					"patching_rect" : [ 29.0, 254.0, 70.0, 22.0 ],
					"style" : "",
					"text" : "pak 1. 1. 1."
				}

			}
, 			{
				"box" : 				{
					"fontname" : "Arial",
					"fontsize" : 12.0,
					"id" : "obj-53",
					"maxclass" : "newobj",
					"numinlets" : 1,
					"numoutlets" : 0,
					"patching_rect" : [ 29.0, 412.0, 140.0, 22.0 ],
					"style" : "",
					"text" : "udpsend 127.0.0.1 6448"
				}

			}
 ],
		"lines" : [ 			{
				"patchline" : 				{
					"destination" : [ "obj-58", 0 ],
					"disabled" : 0,
					"hidden" : 0,
					"source" : [ "obj-16", 0 ]
				}

			}
, 			{
				"patchline" : 				{
					"destination" : [ "obj-58", 1 ],
					"disabled" : 0,
					"hidden" : 0,
					"source" : [ "obj-17", 0 ]
				}

			}
, 			{
				"patchline" : 				{
					"destination" : [ "obj-58", 2 ],
					"disabled" : 0,
					"hidden" : 0,
					"source" : [ "obj-18", 0 ]
				}

			}
, 			{
				"patchline" : 				{
					"destination" : [ "obj-53", 0 ],
					"disabled" : 0,
					"hidden" : 0,
					"midpoints" : [ 555.5, 399.0, 38.5, 399.0 ],
					"source" : [ "obj-2", 0 ]
				}

			}
, 			{
				"patchline" : 				{
					"destination" : [ "obj-74", 0 ],
					"disabled" : 0,
					"hidden" : 0,
					"midpoints" : [ 38.5, 282.0, 38.5, 282.0 ],
					"source" : [ "obj-58", 0 ]
				}

			}
, 			{
				"patchline" : 				{
					"destination" : [ "obj-2", 0 ],
					"disabled" : 0,
					"hidden" : 0,
					"source" : [ "obj-7", 0 ]
				}

			}
, 			{
				"patchline" : 				{
					"destination" : [ "obj-82", 0 ],
					"disabled" : 0,
					"hidden" : 0,
					"midpoints" : [ 38.5, 310.0, 38.5, 310.0 ],
					"source" : [ "obj-74", 0 ]
				}

			}
, 			{
				"patchline" : 				{
					"destination" : [ "obj-53", 0 ],
					"disabled" : 0,
					"hidden" : 0,
					"midpoints" : [ 38.5, 388.0, 38.5, 388.0 ],
					"source" : [ "obj-77", 0 ]
				}

			}
, 			{
				"patchline" : 				{
					"destination" : [ "obj-11", 0 ],
					"disabled" : 0,
					"hidden" : 0,
					"source" : [ "obj-82", 1 ]
				}

			}
, 			{
				"patchline" : 				{
					"destination" : [ "obj-77", 0 ],
					"disabled" : 0,
					"hidden" : 0,
					"midpoints" : [ 52.5, 352.0, 38.5, 352.0 ],
					"source" : [ "obj-82", 1 ]
				}

			}
, 			{
				"patchline" : 				{
					"destination" : [ "obj-77", 0 ],
					"disabled" : 0,
					"hidden" : 0,
					"midpoints" : [ 38.5, 343.0, 38.5, 343.0 ],
					"source" : [ "obj-82", 0 ]
				}

			}
 ],
		"dependency_cache" : [ 			{
				"name" : "OpenSoundControl.mxo",
				"type" : "iLaX"
			}
 ],
		"embedsnapshot" : 0
	}

}
