#N canvas 626 92 878 610 10;
#X declare -lib oscx;
#X obj 140 327 *~;
#X floatatom 140 242 0 0 0 0 - - -;
#X floatatom 35 271 0 0 0 0 - - -;
#X obj 50 347 +~;
#X floatatom 162 297 0 0 0 0 - - -;
#X text 47 234 carrier;
#X text 46 252 frequency;
#X text 125 218 frequency;
#X text 126 201 modulation;
#X obj 49 391 osc~;
#X text 205 289 modulation;
#X obj 140 267 osc~;
#X obj 48 429 output~;
#X text 118 445 <-- Hit "dsp" and slide up volume to listen;
#X obj 38 79 dumpOSC 12000;
#X obj 485 12 import oscx;
#X obj 38 102 OSCroute /wek;
#X obj 38 124 OSCroute /outputs;
#X obj 41 147 unpack f f f;
#X obj 42 168 * 500;
#X obj 89 187 * 500;
#X obj 237 179 * 500;
#X text 25 -20 Wekinator controlling FM synthesis Adapated from FM
synthesis PD example patch Receives 3 continuous outputs from Wekinator:
1) Carrier freq 2) Modulation freq 3) Modulation index. Each of these
can be between 0 and 1 (or other \, but they are scaled to be reasonable.)
;
#X text 79 325;
#X text 213 303 index;
#X text 127 78 Reciving on port 12000;
#X connect 0 0 3 1;
#X connect 1 0 11 0;
#X connect 2 0 3 0;
#X connect 3 0 9 0;
#X connect 4 0 0 1;
#X connect 9 0 12 0;
#X connect 9 0 12 1;
#X connect 11 0 0 0;
#X connect 14 0 16 0;
#X connect 16 0 17 0;
#X connect 17 0 18 0;
#X connect 18 0 19 0;
#X connect 18 1 20 0;
#X connect 18 2 21 0;
#X connect 19 0 2 0;
#X connect 20 0 1 0;
#X connect 21 0 4 0;
